<svg xmlns="http://www.w3.org/2000/svg" fill="none" height="44" viewBox="0 0 148 44" width="148"><g fill="#909980"><path d="m.753495 16.6091c2.808485 0 7.397955-3.6595 7.397955-3.6595.06849 1.0556.137 2.0409.20549 3.4484 1.91796-2.5335 4.10996-3.8707 6.91846-3.8707 2.877 0 5.0005 1.3372 6.028 3.6596 1.9864-1.1964 3.6304-2.7447 5.6169-3.3077 4.5895-1.4075 8.22 1.4779 8.4255 6.4043.0685 1.2667 0 2.6039.0685 3.8707 0 1.9001-.0685 3.8707.137 5.7708.2055 1.9002.6165 3.8004.959 5.7709-3.0825 0-6.028 0-9.316 0 .2055-.9149.4795-1.689.548-2.5336.137-4.0114.411-7.9525.411-11.8936 0-.9149-1.0275-2.3224-1.8495-2.6039-1.233-.4223-2.74 0-4.11.2111-.2054 0-.4109.9853-.4109 1.5483.2055 5.0671.4109 10.1342.6164 15.2717-2.6029 0-5.6169 0-8.2199 0 .2055-4.5041.3425-8.8674.6165-13.3012.2055-3.941-2.9455-4.7152-5.54846-3.8003-.4795.1408-1.0275 1.126-1.0275 1.6891 0 4.8559-.47949 9.8527.959 14.6383.0685.2111 0 .4222 0 .7741-3.01398 0-6.02796 0-9.17894 0 1.57549-7.2488 2.32898-10.7676.753495-18.0868z"></path><path d="m97.3378 34.6958c-3.3564 0-6.3704 0-9.5214 0 1.5755-7.2488 1.8495-11.5417.411-17.1718 0 0 2.466-.7742 2.6715-.8446 1.1645-.3518 2.2605-.9852 3.151-1.7594.4795-.4222.8905-.8445 1.3015-1.2667.137-.1408.3424-.4223.5479-.6334.0685.9852.0686 1.8298.1371 3.1669.5479-.563.9589-.9149 1.3014-1.2668 2.5345-2.3928 5.4112-2.8854 8.5622-1.689 2.946 1.1964 3.973 3.8003 4.042 6.8969.137 3.8707.274 7.8118.479 11.6825.069.9149.411 1.8298.617 2.8854-3.151 0-6.234 0-8.974 0 .206-4.1522.48-8.3044.685-12.527 0-.563 0-1.1964-.068-1.7594-.137-1.4075-.617-2.8854-2.055-3.0966-1.3702-.2111-2.8772.2112-4.2472.563-.2739.0704-.4795 1.1261-.4795 1.6891.2055 4.9967-.2739 10.0638 1.4385 15.1309z"></path><path d="m38.2227 23.7172c0-6.8265 4.4524-11.1899 11.5079-11.1899 6.9184 0 11.5764 4.5041 11.5764 11.2603 0 6.8265-4.795 11.5417-11.5764 11.4713-6.987 0-11.5079-4.5744-11.5079-11.5417zm15.0698 0c-.0685-2.3224-.411-4.5745-1.0274-6.8265-.274-1.2668-1.0275-2.3928-2.5345-2.4632-1.644-.0704-2.3975 1.1964-2.74 2.4632-1.233 4.5745-1.233 9.2193 0 13.8641.3425 1.2668 1.0275 2.5336 2.6715 2.5336 2.6715-.0704 3.0825-4.0115 3.3565-6.1228.2055-1.126.2739-2.3224.2739-3.4484z"></path><path d="m62.7449 23.5059c.0685-6.7561 4.5895-11.0491 11.5764-10.9787 6.9185.0704 11.5765 4.5745 11.508 11.3306-.0685 6.8969-4.932 11.6121-11.782 11.4714-6.9184-.2111-11.3709-4.856-11.3024-11.8233zm8.083.3519c0 2.3224.274 4.6449.822 6.8969.274 1.2668.959 2.6039 2.6029 2.6039 1.644 0 2.2605-1.2667 2.6715-2.5335 1.3015-4.5041 1.37-9.0786.0685-13.653-.411-1.4076-1.096-2.6743-2.74-2.6743-1.7124 0-2.3974 1.4075-2.6714 2.7446-.548 2.1817-.7535 4.3634-.7535 6.6154z"></path><path d="m126.314 36.0326c1.233.8445 2.329 1.7594 3.493 2.3928 2.124 1.1964 3.836.6334 4.727-1.6186.274-.7038.274-1.7594-.069-2.3928-3.356-6.9673-6.781-13.8642-10.206-20.7611-.069-.1407-.069-.3519-.137-.6334h11.028c-1.918 5.3486 1.781 9.0082 3.288 13.5123 2.809-3.6596 4.11-9.1489 3.357-13.5123h5.206c0 .1408.068.2815.068.3519-3.493 7.9526-6.918 15.8347-10.412 23.7872-.342.7742-.616 1.478-1.027 2.2521-2.261 4.4337-7.604 5.0671-13.769.7741"></path><path d="m121.998 0c-.959 14.4272-1.439 23.928.616 34.6956-3.082 0-6.096 0-9.042 0 1.439-10.4861 1.987-17.4534.343-28.08022"></path></g></svg>